<?xml version="1.0" ?><svg style="enable-background:new 0 0 512 512;" version="1.1" viewBox="0 0 512 512" xml:space="preserve" xmlns="http://www.w3.org/2000/svg" xmlns:xlink="http://www.w3.org/1999/xlink"><g id="_x31_3_x2C__Dna_x2C__genetics_x2C__genomic_x2C__strand_x2C__virus"><g id="XMLID_1452_"><g id="XMLID_1453_"><path d="M444.644,273.943c-26.642-26.643-60.41-43.741-97.655-49.446c-20.839-3.191-41.652-2.671-61.985,1.525     c4.166-20.222,4.712-41.123,1.515-61.996c-5.704-37.243-22.802-71.012-49.445-97.655l-18.754-18.754     c-8.56-8.562-22.42-8.563-30.98,0c-8.542,8.542-8.542,22.439,0,30.981l18.754,18.753c3.573,3.574,6.893,7.317,9.984,11.19     L95.843,228.775c-3.887-3.088-7.631-6.41-11.198-9.978l-18.753-18.753c-8.541-8.541-22.438-8.542-30.981,0.001     c-8.541,8.542-8.541,22.439,0.001,30.981l18.753,18.754c26.643,26.642,60.411,43.741,97.655,49.446     c21.675,3.32,42.355,2.514,61.989-1.54c-4.17,20.226-4.717,41.133-1.519,62.011c5.705,37.244,22.804,71.013,49.446,97.655     l24.73,24.732c8.564,8.563,22.418,8.56,30.98,0c8.562-8.561,8.565-22.42,0-30.982l-24.73-24.73     c-3.574-3.574-6.894-7.317-9.985-11.191l120.233-120.233c3.887,3.089,7.631,6.411,11.198,9.979l24.732,24.73     c8.539,8.541,22.438,8.542,30.98,0c8.542-8.541,8.542-22.44,0-30.98L444.644,273.943z M232.773,245.472     c-13.926,6.381-28.58,10.162-43.327,11.437l54.884-54.884C243.025,216.777,239.197,231.461,232.773,245.472z M239.397,153.16     c3.309,11.134,5.126,22.65,5.396,34.259l-69.945,69.947c-11.613-0.283-23.145-2.092-34.281-5.376L239.397,153.16z      M130.035,248.382c-9.089-3.534-17.829-8.08-26.032-13.625l118.074-118.075c5.579,8.2,10.154,16.907,13.702,25.954     L130.035,248.382z M152.834,289.339c-35.125-5.381-66.972-21.506-92.099-46.632l-18.753-18.753     c-4.642-4.642-4.642-12.196,0-16.839c4.644-4.643,12.196-4.644,16.84,0l18.753,18.753c40.165,40.167,98.101,51.52,148.575,33.125     c-4.224,9.061-7.646,18.381-10.248,27.885C195.278,291.755,174.076,292.592,152.834,289.339z M309.878,458.171     c2.249,2.248,3.488,5.238,3.488,8.419c0,6.579-5.326,11.907-11.908,11.907c-3.18,0-6.17-1.239-8.42-3.487l-24.731-24.73     c-25.126-25.127-41.251-56.974-46.632-92.099c-5.381-35.124,0.472-70.338,16.925-101.834     c28.862-55.252,18.641-121.989-25.437-166.067L194.41,71.527c-4.643-4.643-4.643-12.197,0-16.84     c4.65-4.652,12.185-4.655,16.839,0l18.754,18.753c25.127,25.128,41.251,56.974,46.631,92.098     c5.381,35.124-0.472,70.337-16.925,101.833c-28.863,55.252-18.641,121.989,25.438,166.067L309.878,458.171z M262.53,381.083     l105.744-105.746c9.089,3.535,17.83,8.081,26.033,13.625L276.232,407.037C270.653,398.837,266.078,390.13,262.53,381.083z      M258.912,370.561c-3.309-11.134-5.126-22.651-5.398-34.26l69.947-69.947c11.612,0.283,23.145,2.092,34.28,5.376L258.912,370.561     z M253.979,321.696c1.305-14.752,5.132-29.436,11.556-43.446c13.927-6.382,28.582-10.163,43.329-11.439L253.979,321.696z      M462.305,322.582c-4.644,4.645-12.197,4.642-16.84,0.001l-24.731-24.73c-40.168-40.172-98.107-51.52-148.575-33.126     c4.224-9.061,7.646-18.381,10.249-27.886c20.627-4.878,41.827-5.713,63.067-2.46c35.125,5.38,66.973,21.506,92.099,46.632     l24.731,24.73c2.248,2.249,3.487,5.239,3.487,8.42C465.793,317.344,464.553,320.334,462.305,322.582z" id="XMLID_1484_"/><path d="M317.132,127.437c8.541,0,15.742-5.784,17.935-13.636h13.726c1.038,9.464,4.817,18.112,10.527,25.135     l-5.531,5.531c-5.655-2.705-12.483-1.659-17.064,2.921c-5.849,5.849-5.849,15.365,0,21.213c2.833,2.833,6.6,4.394,10.606,4.394     c4.007,0,7.773-1.561,10.607-4.394c4.607-4.607,5.569-11.485,2.917-17.059l5.535-5.535c7.099,5.771,15.856,9.576,25.439,10.565     v7.8c-5.816,2.066-10,7.609-10,14.125c0,8.271,6.728,15,15,15c8.271,0,15-6.729,15-15c0-6.516-4.184-12.059-10-14.125v-7.8     c9.583-0.989,18.341-4.794,25.439-10.566l5.535,5.536c-2.652,5.574-1.69,12.452,2.917,17.059     c5.862,5.862,15.348,5.863,21.214-0.001c5.847-5.848,5.847-15.364-0.001-21.213c-4.587-4.585-11.414-5.622-17.063-2.92     l-5.531-5.531c5.772-7.098,9.576-15.856,10.565-25.439h7.8c2.065,5.816,7.608,10,14.125,10c8.271,0,15-6.729,15-15     s-6.729-15-15-15c-6.517,0-12.06,4.184-14.125,10h-7.8c-0.777-7.537-3.304-14.56-7.151-20.671l12.855-12.855     c8.023,4.854,18.517,3.807,25.417-3.092c8.103-8.104,8.103-21.29-0.001-29.395c-8.122-8.122-21.272-8.125-29.395,0     c-6.914,6.912-7.936,17.409-3.093,25.416l-12.005,12.005c-7.701-7.954-18.095-13.284-29.703-14.483v-7.8     c5.816-2.066,10-7.609,10-14.125c0-8.271-6.729-15-15-15c-8.272,0-15,6.729-15,15c0,6.516,4.184,12.059,10,14.125v7.8     c-9.583,0.989-18.34,4.794-25.439,10.565l-5.535-5.535c2.652-5.574,1.69-12.452-2.917-17.059c-5.862-5.863-15.351-5.862-21.213,0     c-5.849,5.849-5.849,15.365,0,21.213c4.577,4.577,11.405,5.628,17.064,2.921l5.531,5.531     c-5.832,7.173-9.652,16.041-10.593,25.742h-13.66c-2.192-7.853-9.393-13.637-17.935-13.637c-10.276,0-18.637,8.36-18.637,18.637     C298.495,119.077,306.855,127.437,317.132,127.437z M461.326,41.396c2.881,0,5.59,1.122,7.626,3.159     c4.205,4.206,4.205,11.048,0.001,15.253c-4.216,4.215-11.038,4.215-15.254,0c-2.037-2.037-3.159-4.746-3.159-7.626     C450.54,46.222,455.364,41.396,461.326,41.396z M350.867,161.53c-0.944,0.944-2.2,1.465-3.536,1.465     c-1.336,0-2.592-0.521-3.536-1.465c-1.949-1.949-1.949-5.122,0-7.071c1.954-1.954,5.118-1.954,7.072,0     C352.816,156.409,352.816,159.581,350.867,161.53z M396.828,183.497c-2.757,0-5-2.243-5-5s2.243-5,5-5c2.757,0,5,2.243,5,5     S399.585,183.497,396.828,183.497z M449.861,154.459c1.949,1.95,1.949,5.122,0.001,7.071c-1.955,1.954-5.116,1.956-7.072,0.001     c-1.949-1.949-1.949-5.122,0-7.071c0.944-0.944,2.2-1.464,3.536-1.464C447.661,152.995,448.917,153.515,449.861,154.459z      M466.828,103.497c2.757,0,5,2.243,5,5s-2.243,5-5,5c-2.757,0-5-2.243-5-5S464.071,103.497,466.828,103.497z M396.828,33.497     c2.757,0,5,2.243,5,5c0,2.757-2.243,5-5,5c-2.757,0-5-2.243-5-5C391.828,35.741,394.071,33.497,396.828,33.497z M343.795,62.536     c-1.949-1.949-1.949-5.122,0-7.071c1.951-1.951,5.114-1.958,7.072,0c1.949,1.949,1.949,5.122,0,7.071     c-0.944,0.944-2.2,1.464-3.536,1.464C345.995,64,344.739,63.48,343.795,62.536z M396.828,70.164     c21.138,0,38.334,17.196,38.334,38.333s-17.196,38.333-38.334,38.333c-21.137,0-38.333-17.196-38.333-38.333     S375.691,70.164,396.828,70.164z M317.132,100.164c4.762,0,8.636,3.874,8.636,8.637s-3.874,8.636-8.636,8.636     c-4.763,0-8.637-3.874-8.637-8.636S312.369,100.164,317.132,100.164z" id="XMLID_1473_"/><path d="M406.828,110.164c8.271,0,15-6.729,15-15s-6.729-15-15-15c-8.272,0-15,6.729-15,15     S398.556,110.164,406.828,110.164z M406.828,90.164c2.757,0,5,2.243,5,5c0,2.757-2.243,5-5,5c-2.757,0-5-2.243-5-5     C401.828,92.407,404.071,90.164,406.828,90.164z" id="XMLID_1470_"/><path d="M386.828,136.831c6.434,0,11.667-5.234,11.667-11.667c0-6.433-5.233-11.667-11.667-11.667     c-6.433,0-11.666,5.233-11.666,11.667C375.162,131.597,380.395,136.831,386.828,136.831z M386.828,123.497     c0.919,0,1.667,0.748,1.667,1.667s-0.748,1.667-1.667,1.667c-0.919,0-1.666-0.748-1.666-1.667S385.909,123.497,386.828,123.497z" id="XMLID_1467_"/><circle cx="55.995" cy="130.997" id="XMLID_390_" r="7.5"/><circle cx="295.995" cy="55.997" id="XMLID_389_" r="7.5"/><circle cx="475.995" cy="215.997" id="XMLID_388_" r="7.5"/><circle cx="465.995" cy="375.997" id="XMLID_387_" r="7.5"/><circle cx="385.995" cy="425.997" id="XMLID_386_" r="7.5"/><circle cx="190.995" cy="440.997" id="XMLID_385_" r="7.5"/><circle cx="60.995" cy="310.997" id="XMLID_384_" r="7.5"/><path d="M93.495,358.497c-24.814,0-45,20.186-45,45s20.186,45,45,45c24.813,0,45-20.186,45-45     S118.308,358.497,93.495,358.497z M93.495,438.497c-19.299,0-35-15.701-35-35s15.701-35,35-35c19.299,0,35,15.701,35,35     S112.794,438.497,93.495,438.497z" id="XMLID_1457_"/><path d="M128.495,108.497c16.542,0,30-13.458,30-30s-13.458-30-30-30s-30,13.458-30,30     S111.953,108.497,128.495,108.497z M128.495,58.497c11.028,0,20,8.972,20,20s-8.972,20-20,20c-11.028,0-20-8.972-20-20     S117.466,58.497,128.495,58.497z" id="XMLID_1454_"/></g></g></g><g id="Layer_1"/></svg>
